<svg width="33" height="32" viewBox="0 0 33 32" fill="none" xmlns="http://www.w3.org/2000/svg">
<g clip-path="url(#clip0_21_21)">
<path d="M26.25 16.7627L16.25 26.6667L6.24999 16.7627C5.5904 16.1208 5.07085 15.3493 4.72406 14.4968C4.37727 13.6443 4.21074 12.7293 4.23498 11.8092C4.25921 10.8892 4.47368 9.98417 4.86487 9.15111C5.25606 8.31804 5.81551 7.575 6.50798 6.96876C7.20044 6.36253 8.01093 5.90624 8.88841 5.62863C9.76588 5.35102 10.6913 5.2581 11.6065 5.35573C12.5216 5.45335 13.4067 5.7394 14.2058 6.19587C15.005 6.65233 15.701 7.26933 16.25 8.00799C16.8014 7.27469 17.4982 6.66309 18.2968 6.21146C19.0954 5.75984 19.9787 5.47792 20.8912 5.38335C21.8038 5.28878 22.7261 5.38359 23.6004 5.66185C24.4746 5.94011 25.282 6.39582 25.9721 7.00048C26.6621 7.60513 27.2199 8.3457 27.6106 9.17585C28.0012 10.006 28.2163 10.9078 28.2424 11.8249C28.2685 12.742 28.105 13.6546 27.7622 14.5057C27.4193 15.3567 26.9045 16.1278 26.25 16.7707" stroke="white" stroke-width="2" stroke-linecap="round" stroke-linejoin="round"/>
<path d="M16.25 8L11.8593 12.3907C11.6094 12.6407 11.469 12.9798 11.469 13.3333C11.469 13.6869 11.6094 14.026 11.8593 14.276L12.5833 15C13.5033 15.92 14.9967 15.92 15.9167 15L17.25 13.6667C18.0457 12.871 19.1248 12.424 20.25 12.424C21.3752 12.424 22.4544 12.871 23.25 13.6667L26.25 16.6667" stroke="white" stroke-width="2" stroke-linecap="round" stroke-linejoin="round"/>
<path d="M16.9167 20.6667L19.5833 23.3334" stroke="white" stroke-width="2" stroke-linecap="round" stroke-linejoin="round"/>
<path d="M20.25 17.3333L22.9167 20" stroke="white" stroke-width="2" stroke-linecap="round" stroke-linejoin="round"/>
</g>
<defs>
<clipPath id="clip0_21_21">
<rect width="32" height="32" fill="white" transform="translate(0.25)"/>
</clipPath>
</defs>
</svg>
