<svg width="28" height="29" viewBox="0 0 28 29" fill="none" xmlns="http://www.w3.org/2000/svg">
<path fill-rule="evenodd" clip-rule="evenodd" d="M14 3.89575C19.7994 3.89575 24.5 8.59635 24.5 14.3958C24.5 20.1952 19.7994 24.8958 14 24.8958C8.2006 24.8958 3.5 20.1952 3.5 14.3958C3.5 8.59635 8.2006 3.89575 14 3.89575Z" stroke="white" stroke-width="1.75" stroke-linecap="round" stroke-linejoin="round"/>
<path fill-rule="evenodd" clip-rule="evenodd" d="M13.9982 3.89575C16.1572 3.89575 17.9064 8.59635 17.9064 14.3958C17.9064 20.1952 16.1572 24.8958 13.9982 24.8958C11.8391 24.8958 10.0898 20.1952 10.0898 14.3958C10.0898 8.59635 11.8391 3.89575 13.9982 3.89575Z" stroke="white" stroke-width="1.75" stroke-linecap="round" stroke-linejoin="round"/>
<path fill-rule="evenodd" clip-rule="evenodd" d="M24.5 14.394C24.5 16.5529 19.7994 18.3021 14 18.3021C8.2006 18.3021 3.5 16.5529 3.5 14.394C3.5 12.2349 8.2006 10.4856 14 10.4856C19.7994 10.4856 24.5 12.2349 24.5 14.394Z" stroke="white" stroke-width="1.75" stroke-linecap="round" stroke-linejoin="round"/>
</svg>
