<svg width="27" height="30" viewBox="0 0 27 30" fill="none" xmlns="http://www.w3.org/2000/svg">
<path fill-rule="evenodd" clip-rule="evenodd" d="M14.8328 0.349609V8.34961H12.1661V0.349609H14.8328ZM22.0516 7.01609L18.2137 10.8545L16.328 8.96903L20.1659 5.13059L22.0516 7.01609ZM6.83267 5.13059L10.6711 8.96883L8.7855 10.8545L4.9471 7.01626L6.83267 5.13059ZM10.8328 13.6829C10.8328 12.2102 12.0267 11.0163 13.4995 11.0163C14.9721 11.0163 16.1661 12.2102 16.1661 13.6829C16.1661 15.1557 14.9721 16.3496 13.4995 16.3496C12.0267 16.3496 10.8328 15.1557 10.8328 13.6829ZM0.166016 12.3497H8.166V15.0164H0.166016V12.3497ZM18.8328 12.3497H26.8328V15.0164H18.8328V12.3497ZM10.6651 18.5473L9.65009 19.412C6.77351 21.8627 5.13266 24.9084 4.12092 28.6939L3.77666 29.982L1.2004 29.2935L1.54468 28.0053C2.65902 23.836 4.5351 20.2665 7.9208 17.3821L8.9357 16.5175L10.6651 18.5473ZM18.3333 16.6311L22.0516 20.3496L20.166 22.2352L16.4477 18.5167L18.3333 16.6311ZM14.8328 19.1856V27.0163H12.1661V19.1856H14.8328Z" fill="white"/>
</svg>
