<svg width="27" height="24" viewBox="0 0 27 24" fill="none" xmlns="http://www.w3.org/2000/svg">
<path d="M9.5 17.3496C5.08172 17.3496 1.5 13.7679 1.5 9.3496C1.5 4.93133 5.08172 1.34961 9.5 1.34961C12.7796 1.34961 15.5983 3.3231 16.8333 6.1473M25.5 14.6829C25.5 19.1012 21.9183 22.6829 17.5 22.6829C14.0121 22.6829 11.0455 20.4508 9.9508 17.3371C9.6588 16.5065 9.5 15.6133 9.5 14.6829C9.5 10.416 12.8407 6.9292 17.0492 6.6954C17.1984 6.6871 17.3487 6.6829 17.5 6.6829C21.9183 6.6829 25.5 10.2647 25.5 14.6829Z" stroke="white" stroke-width="2" stroke-linecap="square"/>
</svg>
